<?xml version="1.0" encoding="utf-8"?>
<!-- Generator: Adobe Illustrator 19.0.0, SVG Export Plug-In . SVG Version: 6.00 Build 0)  -->
<svg version="1.1" id="Capa_1" xmlns="http://www.w3.org/2000/svg" xmlns:xlink="http://www.w3.org/1999/xlink" x="0px" y="0px"
	 viewBox="-282 408 389 186" style="enable-background:new -282 408 389 186;" xml:space="preserve">
<style type="text/css">
	.st0{fill:#ED1B24;}
	.st1{fill:#FFFFFF;}
	.st2{fill:none;stroke:#FFFFFF;stroke-width:1.6667;}
</style>
<g>
	<rect x="-296" y="408" class="st0" width="411" height="186"/>
	<polygon class="st1" points="58.9,434.4 81.9,434.4 81.9,543.4 101.4,543.4 101.4,570.9 58.9,570.9 	"/>
	<g>
		<circle class="st2" cx="94.6" cy="441.7" r="8.8"/>
		<path class="st1" d="M91.2,446.2V437h4.1c0.8,0,1.4,0.1,1.9,0.2c0.4,0.2,0.8,0.5,1,0.9c0.3,0.4,0.4,0.9,0.4,1.4
			c0,0.7-0.2,1.2-0.6,1.6s-1.1,0.7-2,0.9c0.3,0.2,0.6,0.3,0.7,0.5c0.4,0.3,0.7,0.7,1,1.2l1.6,2.5h-1.5l-1.2-1.9
			c-0.4-0.6-0.6-1-0.9-1.3c-0.2-0.3-0.4-0.5-0.6-0.6s-0.4-0.2-0.6-0.2c-0.1,0-0.4,0-0.7,0h-1.4v4.1L91.2,446.2L91.2,446.2z
			 M92.4,441H95c0.6,0,1-0.1,1.3-0.2c0.3-0.1,0.6-0.3,0.7-0.5c0.2-0.3,0.2-0.5,0.2-0.8c0-0.4-0.2-0.8-0.5-1.1
			c-0.3-0.3-0.8-0.4-1.5-0.4h-2.9L92.4,441L92.4,441z"/>
	</g>
	<path class="st1" d="M-279.1,570.4v-136h31l11,57l12.5-57h30v122.5l19.5-122.5h30.5l19,122.5v-122h40.5c0,0,14,2.5,21,22l-3-22.5
		h24.5l11.5,70.5l12-70h69v25.5H29.4v28h19.5v28.5h-19v26h20v27.5H5.4v-131l-23,131h-27.5l-14.5-87c0,0-2.5,24-16,35l17.5,52h-24
		l-17-45.5v45.5h-48.5l-2.5-13h-18.5l-4,13h-46v-50l-12,50h-12.5l-11-49.5v49L-279.1,570.4z M-152.6,530.9l-7-41.5l-6,41.5H-152.6z
		 M-99.6,499.4c16.5-1,15-21.5,15-21.5c-2.5-20-15-19-15-19V499.4z"/>
</g>
</svg>
